<svg xmlns="http://www.w3.org/2000/svg" viewBox="0 0 100 125" x="0px" y="0px"><g><path d="M89.23,94.02H10.7705a1.7,1.7,0,0,1-1.7-1.7V41.7856a1.699,1.699,0,0,1,.585-1.2827l39.23-34.105a1.6983,1.6983,0,0,1,2.23,0l39.23,34.105a1.699,1.699,0,0,1,.585,1.2827V92.3193A1.7,1.7,0,0,1,89.23,94.02Zm-76.7588-3.4H87.5293V42.5605L50,9.9331,12.4707,42.5605Z"/><path d="M55.7842,78.1641H44.2163a1.7,1.7,0,0,1-1.7-1.7V65.2627H31.3145a1.7,1.7,0,0,1-1.7-1.7V51.9941a1.7,1.7,0,0,1,1.7-1.7H42.5161V39.0923a1.7,1.7,0,0,1,1.7-1.7H55.7842a1.7,1.7,0,0,1,1.7,1.7V50.2939H68.6855a1.7,1.7,0,0,1,1.7,1.7V63.5625a1.7,1.7,0,0,1-1.7,1.7H57.4844V76.4639A1.7,1.7,0,0,1,55.7842,78.1641Zm-9.8677-3.4H54.084V63.5625a1.7,1.7,0,0,1,1.7-1.7H66.9854v-8.168H55.7842a1.7,1.7,0,0,1-1.7-1.7V40.7925H45.9165V51.9941a1.7,1.7,0,0,1-1.7,1.7H33.0146v8.168H44.2163a1.7,1.7,0,0,1,1.7,1.7Z"/></g><text x="0" y="115" fill="#000000" font-size="5px" font-weight="bold" font-family="'Helvetica Neue', Helvetica, Arial-Unicode, Arial, Sans-serif">Created by Max Hancock</text><text x="0" y="120" fill="#000000" font-size="5px" font-weight="bold" font-family="'Helvetica Neue', Helvetica, Arial-Unicode, Arial, Sans-serif">from the Noun Project</text></svg>