<svg xmlns="http://www.w3.org/2000/svg" viewBox="0 0 32 40" x="0px" y="0px"><title>medical and houspital</title><g data-name="Layer 2"><path d="M20.27606,19.56232l4.41437-6.26691a7.1563,7.1563,0,0,0-1.74609-9.99023A7.20958,7.20958,0,0,0,12.93066,5.04736l-4.99219,7.085.00006.00006L3.30762,18.70361a7.17027,7.17027,0,0,0,5.87012,11.293,7.1918,7.1918,0,0,0,5.8916-3.04492l5.207-7.38916Zm-6.529-13.93878a6.20775,6.20775,0,0,1,8.623-1.49951A6.15657,6.15657,0,0,1,23.873,12.71924l-4.415,6.269-5.0625-3.54956-5.06232-3.5498L13.748,5.62354Zm.50391,20.752A6.20508,6.20508,0,0,1,5.62988,27.877,6.15964,6.15964,0,0,1,4.126,19.27979l4.63086-6.57324,5.0625,3.54956,5.06232,3.5498Z"/><path d="M12.01953,25.90137a4.24939,4.24939,0,0,1-3.32715,1.07031.49991.49991,0,1,0-.11523.99316,5.2155,5.2155,0,0,0,4.11621-1.32422.50014.50014,0,0,0-.67383-.73926Z"/><path d="M14.84375,22.93066a.50171.50171,0,0,0-.69727.12061l-1.09277,1.55127a.50042.50042,0,0,0,.81836.57617l1.09277-1.55127A.501.501,0,0,0,14.84375,22.93066Z"/><path d="M22.91406,7.417a4.198,4.198,0,0,1-.06641,3.04.49981.49981,0,1,0,.92383.38184,5.19684,5.19684,0,0,0,.082-3.76514,5.44717,5.44717,0,0,0-.23926-.55518.49962.49962,0,1,0-.89453.44531A4.50077,4.50077,0,0,1,22.91406,7.417Z"/><path d="M21.30371,14.21533a.50069.50069,0,0,0,.41016-.21387l1.08594-1.55664a.5001.5001,0,0,0-.82031-.57227L20.89355,13.4292a.5.5,0,0,0,.41016.78613Z"/><path d="M28.38867,20.61084l-.01361-.009a5.49655,5.49655,0,0,0-7.77271,7.77386l.009.01349.01361.009a5.49655,5.49655,0,0,0,7.77271-7.77386ZM24.5,20a4.455,4.455,0,0,1,2.793.99957l-6.293,6.29388A4.4555,4.4555,0,0,1,20,24.5,4.50492,4.50492,0,0,1,24.5,20Zm0,9a4.455,4.455,0,0,1-2.793-.99957l6.293-6.29388A4.4555,4.4555,0,0,1,29,24.5,4.50492,4.50492,0,0,1,24.5,29Z"/></g><text x="0" y="47" fill="#000000" font-size="5px" font-weight="bold" font-family="'Helvetica Neue', Helvetica, Arial-Unicode, Arial, Sans-serif">Created by DARAYANI</text><text x="0" y="52" fill="#000000" font-size="5px" font-weight="bold" font-family="'Helvetica Neue', Helvetica, Arial-Unicode, Arial, Sans-serif">from the Noun Project</text></svg>